<?xml version="1.0" encoding="UTF-8" standalone="no"?>
<!DOCTYPE svg PUBLIC "-//W3C//DTD SVG 1.1//EN" "http://www.w3.org/Graphics/SVG/1.1/DTD/svg11.dtd">
<svg width="100%" height="100%" viewBox="0 0 384 256" version="1.1" xmlns="http://www.w3.org/2000/svg" xmlns:xlink="http://www.w3.org/1999/xlink" xml:space="preserve" xmlns:serif="http://www.serif.com/" style="fill-rule:evenodd;clip-rule:evenodd;stroke-linejoin:round;stroke-miterlimit:2;">
    <g id="_64" serif:id="64" transform="matrix(1,0,0,1,256,128)">
        <g transform="matrix(0.544564,0,0,0.544564,-3.701,23.9733)">
            <g transform="matrix(50,0,0,50,92.1843,48.0649)">
            </g>
            <text x="38.909px" y="48.065px" style="font-family:'Bauhaus93', 'Bauhaus 93', fantasy;font-size:50px;fill:rgb(255,88,0);">V<tspan x="67.282px " y="48.065px ">X</tspan></text>
        </g>
        <g transform="matrix(8.84467e-17,1.44444,-2.03733,1.24751e-16,48.7742,-18.2222)">
            <path d="M14,9.715L14,6.752L26.029,6.752L26.029,4L32,8.233L26.029,12.467L26.029,9.715L14,9.715Z" style="fill:rgb(255,88,0);"/>
        </g>
        <g transform="matrix(1,0,0,1,-256,-128)">
            <path d="M294,130L309,130C313.967,130 318,134.033 318,139L318,181C318,185.967 313.967,190 309,190L267,190C262.033,190 258,185.967 258,181L258,139C258,134.033 262.033,130 267,130L282,130L282,136L268.263,136C265.91,136 264,137.91 264,140.263L264,179.737C264,182.09 265.91,184 268.263,184L307.737,184C310.09,184 312,182.09 312,179.737L312,140.263C312,137.91 310.09,136 307.737,136L294,136L294,130Z" style="fill:rgb(209,200,189);"/>
        </g>
    </g>
    <g id="_32" serif:id="32" transform="matrix(1,0,0,1,320,128)">
        <g transform="matrix(0.280921,0,0,0.280921,-2.36974,11.8593)">
            <g transform="matrix(50,0,0,50,92.1843,48.0649)">
            </g>
            <text x="38.909px" y="48.065px" style="font-family:'Bauhaus93', 'Bauhaus 93', fantasy;font-size:50px;fill:rgb(255,88,0);">V<tspan x="67.282px " y="48.065px ">X</tspan></text>
        </g>
        <g transform="matrix(4.76252e-17,0.777778,-1.4173,8.67848e-17,27.6692,-8.88889)">
            <path d="M14,9.715L14,6.752L24.286,6.752L24.286,4L32,8.233L24.286,12.467L24.286,9.715L14,9.715Z" style="fill:rgb(255,88,0);"/>
        </g>
        <path d="M20,2L28.021,2C29.113,2 30,2.887 30,3.979L30,28.021C30,29.113 29.113,30 28.021,30L3.979,30C2.887,30 2,29.113 2,28.021L2,3.979C2,2.887 2.887,2 3.979,2L12,2L12,6L7.214,6C6.544,6 6,6.544 6,7.214L6,24.786C6,25.456 6.544,26 7.214,26L24.786,26C25.456,26 26,25.456 26,24.786L26,7.214C26,6.544 25.456,6 24.786,6L20,6L20,2Z" style="fill:rgb(209,200,189);"/>
    </g>
    <g id="_16" serif:id="16" transform="matrix(1,0,0,1,352.094,128.17)">
        <g transform="matrix(0.953792,0,0,1.11919,-335.59,-145.095)">
            <path d="M368,132.886C368,131.999 367.154,131.278 366.113,131.278L354.161,131.278C353.119,131.278 352.273,131.999 352.273,132.886L352.273,140.392C352.273,141.279 353.119,142 354.161,142L366.113,142C367.154,142 368,141.279 368,140.392L368,132.886Z" style="fill:rgb(209,200,189);"/>
        </g>
        <g transform="matrix(0.247531,0,0,0.247531,-8.52224,0.181279)">
            <g transform="matrix(50,0,0,50,92.1843,48.0649)">
            </g>
            <text x="38.909px" y="48.065px" style="font-family:'Bauhaus93', 'Bauhaus 93', fantasy;font-size:50px;fill:rgb(255,88,0);">V<tspan x="67.282px " y="48.065px ">X</tspan></text>
        </g>
    </g>
    <g id="_128" serif:id="128">
        <g transform="matrix(1.27734,0,0,1.27734,235.421,45.1725)">
            <g transform="matrix(50,0,0,50,92.1843,48.0649)">
            </g>
            <text x="38.909px" y="48.065px" style="font-family:'Bauhaus93', 'Bauhaus 93', fantasy;font-size:50px;fill:rgb(255,88,0);">V<tspan x="67.282px " y="48.065px ">X</tspan></text>
        </g>
        <g transform="matrix(1.71791e-16,2.80556,-5.90543,3.61603e-16,368.622,-31.2778)">
            <path d="M14,9.715L14,6.752L23.089,6.752L23.089,4L32,8.233L23.089,12.467L23.089,9.715L14,9.715Z" style="fill:rgb(255,88,0);"/>
        </g>
        <g transform="matrix(0.5,0,0,0.5,256,0)">
            <path d="M152,16L206.4,16C224.944,16 240,31.056 240,49.6L240,206.4C240,224.944 224.944,240 206.4,240L49.6,240C31.056,240 16,224.944 16,206.4L16,49.6C16,31.056 31.056,16 49.6,16L104,16L104,32L56.237,32C42.86,32 32,42.86 32,56.237L32,199.763C32,213.14 42.86,224 56.237,224L199.763,224C213.14,224 224,213.14 224,199.763L224,56.237C224,42.86 213.14,32 199.763,32L152,32L152,16Z" style="fill:rgb(209,200,189);"/>
        </g>
    </g>
    <g id="_256" serif:id="256">
        <g transform="matrix(3.43581e-16,5.61111,-11.8109,7.23206e-16,225.243,-66.5556)">
            <path d="M14,9.715L14,6.752L23.089,6.752L23.089,4L32,8.233L23.089,12.467L23.089,9.715L14,9.715Z" style="fill:rgb(255,88,0);"/>
        </g>
        <g transform="matrix(2.55468,0,0,2.55468,-39.1586,89.2098)">
            <g transform="matrix(50,0,0,50,92.1843,48.0649)">
            </g>
            <text x="38.909px" y="48.065px" style="font-family:'Bauhaus93', 'Bauhaus 93', fantasy;font-size:50px;fill:rgb(255,88,0);">V<tspan x="67.282px " y="48.065px ">X</tspan></text>
        </g>
        <path d="M152,16L206.4,16C224.944,16 240,31.056 240,49.6L240,206.4C240,224.944 224.944,240 206.4,240L49.6,240C31.056,240 16,224.944 16,206.4L16,49.6C16,31.056 31.056,16 49.6,16L104,16L104,32L56.237,32C42.86,32 32,42.86 32,56.237L32,199.763C32,213.14 42.86,224 56.237,224L199.763,224C213.14,224 224,213.14 224,199.763L224,56.237C224,42.86 213.14,32 199.763,32L152,32L152,16Z" style="fill:rgb(209,200,189);"/>
    </g>
</svg>
